<!-- Generator: Adobe Illustrator 20.1.0, SVG Export Plug-In  -->
<svg version="1.1"
	 xmlns="http://www.w3.org/2000/svg" xmlns:xlink="http://www.w3.org/1999/xlink" xmlns:a="http://ns.adobe.com/AdobeSVGViewerExtensions/3.0/"
	 x="0px" y="0px" width="408px" height="70px" viewBox="0 0 408 70" style="overflow:scroll;enable-background:new 0 0 408 70;"
	 xml:space="preserve">
<style type="text/css">
	.st0{fill-rule:evenodd;clip-rule:evenodd;fill:#9E5F2E;}
	.st1{fill-rule:evenodd;clip-rule:evenodd;fill:#B3B3B3;}
	.st2{fill:#9A9A9A;}
	.st3{fill:#B3B3B3;}
</style>
<defs>
</defs>
<g>
	<rect x="0" class="st0" width="101" height="70"/>
	<polygon class="st1" points="101,0 101,45 71,45 71,29 92,29 92,12 65,12 65,70 52,70 52,0 	"/>
	<g>
		<path class="st2" d="M126.4,69.4h-3.4l-1.4-3.8h-6.3l-1.3,3.8h-3.4l6.1-16.7h3.3L126.4,69.4L126.4,69.4z M120.5,62.8l-2.2-6.2
			l-2.1,6.2H120.5z"/>
		<rect x="128.3" y="66.2" class="st2" width="3" height="3.2"/>
		<path class="st2" d="M134.1,69.4V52.7h5.1c1.9,0,3.2,0.1,3.8,0.2c0.9,0.3,1.7,0.8,2.3,1.6c0.6,0.8,0.9,1.9,0.9,3.2
			c0,1-0.2,1.9-0.5,2.6c-0.3,0.7-0.8,1.2-1.3,1.7c-0.5,0.4-1.1,0.7-1.6,0.8c-0.7,0.2-1.8,0.2-3.3,0.2h-2.1v6.3H134.1L134.1,69.4z
			 M137.3,55.6v4.7h1.7c1.3,0,2.1-0.1,2.5-0.3c0.4-0.2,0.7-0.4,1-0.8c0.2-0.4,0.4-0.8,0.4-1.3c0-0.6-0.2-1.1-0.5-1.5
			c-0.3-0.4-0.8-0.6-1.3-0.7c-0.4-0.1-1.1-0.1-2.3-0.1H137.3z"/>
		<path class="st2" d="M164.4,63.3l3.1,1c-0.5,1.8-1.3,3.2-2.3,4.1c-1.1,0.9-2.5,1.3-4.2,1.3c-2.1,0-3.8-0.8-5.1-2.3
			c-1.3-1.5-2-3.6-2-6.2c0-2.8,0.7-4.9,2-6.5c1.4-1.5,3.1-2.3,5.3-2.3c1.9,0,3.5,0.6,4.7,1.8c0.7,0.7,1.2,1.7,1.6,3.1l-3.1,0.8
			c-0.2-0.9-0.6-1.5-1.2-2c-0.6-0.5-1.3-0.8-2.1-0.8c-1.2,0-2.1,0.4-2.8,1.3c-0.7,0.9-1.1,2.3-1.1,4.3c0,2.1,0.4,3.6,1.1,4.5
			c0.7,0.9,1.6,1.3,2.8,1.3c0.8,0,1.6-0.3,2.2-0.9C163.7,65.4,164.2,64.5,164.4,63.3z"/>
		<path class="st2" d="M169.6,61.2c0-1.7,0.2-3.1,0.7-4.3c0.4-0.8,0.8-1.6,1.5-2.3c0.6-0.7,1.3-1.2,2-1.5c1-0.4,2.1-0.7,3.4-0.7
			c2.3,0,4.2,0.8,5.5,2.3c1.4,1.5,2.1,3.6,2.1,6.4c0,2.7-0.7,4.8-2.1,6.3c-1.4,1.5-3.2,2.3-5.5,2.3c-2.3,0-4.2-0.8-5.6-2.3
			C170.3,65.9,169.6,63.8,169.6,61.2L169.6,61.2z M172.8,61.1c0,1.9,0.4,3.3,1.2,4.3c0.8,1,1.9,1.5,3.1,1.5c1.3,0,2.3-0.5,3.1-1.4
			c0.8-1,1.2-2.4,1.2-4.4c0-1.9-0.4-3.3-1.2-4.3c-0.8-0.9-1.8-1.4-3.1-1.4c-1.3,0-2.4,0.5-3.2,1.4C173.2,57.7,172.8,59.1,172.8,61.1
			z"/>
		<polygon class="st2" points="187.3,69.4 187.3,52.7 190.4,52.7 196.8,63.9 196.8,52.7 199.7,52.7 199.7,69.4 196.5,69.4 
			190.2,58.5 190.2,69.4 		"/>
		<path class="st2" d="M202.3,64l3.1-0.3c0.2,1.1,0.6,1.9,1.1,2.4c0.6,0.5,1.3,0.8,2.3,0.8c1,0,1.8-0.2,2.3-0.7
			c0.5-0.5,0.8-1,0.8-1.6c0-0.4-0.1-0.7-0.3-1c-0.2-0.3-0.6-0.5-1.1-0.7c-0.4-0.1-1.2-0.4-2.5-0.7c-1.7-0.4-2.9-1-3.6-1.7
			c-1-0.9-1.4-2-1.4-3.4c0-0.9,0.2-1.6,0.7-2.4c0.4-0.7,1.1-1.3,2-1.7c0.9-0.4,1.9-0.6,3.1-0.6c2,0,3.4,0.5,4.4,1.4
			c1,0.9,1.5,2.1,1.6,3.7l-3.2,0.2c-0.1-0.9-0.4-1.5-0.9-1.9c-0.4-0.4-1.1-0.6-2-0.6c-0.9,0-1.6,0.2-2.2,0.6c-0.3,0.3-0.5,0.6-0.5,1
			c0,0.4,0.2,0.7,0.5,1c0.4,0.4,1.4,0.7,2.9,1.1c1.5,0.4,2.7,0.8,3.4,1.2c0.7,0.4,1.3,1,1.7,1.7c0.4,0.7,0.6,1.6,0.6,2.7
			c0,0.9-0.3,1.8-0.7,2.7c-0.5,0.8-1.2,1.5-2.1,1.9c-0.9,0.4-2.1,0.6-3.4,0.6c-2,0-3.5-0.5-4.6-1.5C203.1,67.3,202.5,65.9,202.3,64z
			"/>
		<polygon class="st2" points="221.2,69.4 221.2,55.6 216.6,55.6 216.6,52.7 229,52.7 229,55.6 224.4,55.6 224.4,69.4 		"/>
		<path class="st2" d="M231.1,69.4V52.7h6.7c1.7,0,2.9,0.1,3.6,0.5c0.8,0.3,1.4,0.8,1.8,1.6c0.5,0.8,0.7,1.6,0.7,2.6
			c0,1.3-0.3,2.3-1,3.1c-0.7,0.8-1.7,1.3-3.1,1.5c0.7,0.4,1.3,0.9,1.7,1.4c0.5,0.5,1,1.4,1.8,2.7l1.9,3.2h-3.8l-2.3-3.6
			c-0.8-1.3-1.4-2.1-1.7-2.5c-0.3-0.3-0.6-0.6-0.9-0.7c-0.3-0.1-0.9-0.2-1.6-0.2h-0.6v7H231.1L231.1,69.4z M234.2,59.8h2.3
			c1.5,0,2.5-0.1,2.9-0.2c0.4-0.1,0.7-0.4,0.9-0.7c0.2-0.3,0.3-0.8,0.3-1.2c0-0.6-0.1-1-0.4-1.4c-0.3-0.3-0.7-0.6-1.2-0.7
			c-0.3,0-1-0.1-2.3-0.1h-2.5V59.8z"/>
		<path class="st2" d="M246.8,52.7h3.2v9c0,1.4,0,2.4,0.1,2.8c0.1,0.7,0.5,1.2,1,1.6c0.5,0.4,1.2,0.6,2.1,0.6c0.9,0,1.6-0.2,2-0.6
			c0.5-0.4,0.7-0.9,0.8-1.4c0.1-0.6,0.1-1.5,0.1-2.8v-9.2h3.2v8.8c0,2-0.1,3.4-0.3,4.2c-0.2,0.8-0.5,1.5-0.9,2.1
			c-0.5,0.6-1.1,1-1.8,1.4c-0.8,0.3-1.8,0.5-3,0.5c-1.5,0-2.6-0.2-3.4-0.6c-0.8-0.4-1.4-0.9-1.8-1.4c-0.4-0.6-0.7-1.2-0.9-1.8
			c-0.2-1-0.3-2.4-0.3-4.2V52.7z"/>
		<path class="st2" d="M272.7,63.3l3.1,1c-0.5,1.8-1.3,3.2-2.3,4.1c-1.1,0.9-2.5,1.3-4.2,1.3c-2.1,0-3.8-0.8-5.1-2.3
			c-1.3-1.5-2-3.6-2-6.2c0-2.8,0.7-4.9,2-6.5c1.4-1.5,3.1-2.3,5.3-2.3c1.9,0,3.5,0.6,4.7,1.8c0.7,0.7,1.2,1.7,1.6,3.1l-3.1,0.8
			c-0.2-0.9-0.6-1.5-1.2-2c-0.6-0.5-1.3-0.8-2.1-0.8c-1.2,0-2.1,0.4-2.8,1.3c-0.7,0.9-1.1,2.3-1.1,4.3c0,2.1,0.4,3.6,1.1,4.5
			c0.7,0.9,1.6,1.3,2.8,1.3c0.8,0,1.6-0.3,2.2-0.9C272,65.4,272.4,64.5,272.7,63.3z"/>
		<path class="st2" d="M288.5,63.3l3.1,1c-0.5,1.8-1.3,3.2-2.3,4.1c-1.1,0.9-2.5,1.3-4.2,1.3c-2.1,0-3.8-0.8-5.1-2.3
			c-1.3-1.5-2-3.6-2-6.2c0-2.8,0.7-4.9,2-6.5c1.3-1.5,3.1-2.3,5.3-2.3c1.9,0,3.5,0.6,4.7,1.8c0.7,0.7,1.2,1.7,1.6,3.1l-3.1,0.8
			c-0.2-0.9-0.6-1.5-1.2-2c-0.6-0.5-1.3-0.8-2.1-0.8c-1.2,0-2.1,0.4-2.8,1.3c-0.7,0.9-1.1,2.3-1.1,4.3c0,2.1,0.4,3.6,1.1,4.5
			c0.7,0.9,1.6,1.3,2.8,1.3c0.8,0,1.6-0.3,2.2-0.9C287.8,65.4,288.2,64.5,288.5,63.3z"/>
		<rect x="294.2" y="52.7" class="st2" width="3.2" height="16.7"/>
		<path class="st2" d="M299.7,61.2c0-1.7,0.2-3.1,0.7-4.3c0.4-0.8,0.8-1.6,1.5-2.3c0.6-0.7,1.3-1.2,2-1.5c1-0.4,2.1-0.7,3.4-0.7
			c2.3,0,4.2,0.8,5.5,2.3c1.4,1.5,2.1,3.6,2.1,6.4c0,2.7-0.7,4.8-2.1,6.3c-1.4,1.5-3.2,2.3-5.5,2.3c-2.3,0-4.2-0.8-5.6-2.3
			C300.4,65.9,299.7,63.8,299.7,61.2L299.7,61.2z M303,61.1c0,1.9,0.4,3.3,1.2,4.3c0.8,1,1.9,1.5,3.1,1.5c1.3,0,2.3-0.5,3.1-1.4
			c0.8-1,1.2-2.4,1.2-4.4c0-1.9-0.4-3.3-1.2-4.3c-0.8-0.9-1.8-1.4-3.1-1.4c-1.3,0-2.4,0.5-3.2,1.4C303.4,57.7,303,59.1,303,61.1z"/>
		<polygon class="st2" points="317.4,69.4 317.4,52.7 320.5,52.7 326.9,63.9 326.9,52.7 329.9,52.7 329.9,69.4 326.7,69.4 
			320.4,58.5 320.4,69.4 		"/>
		<polygon class="st2" points="333.2,69.4 333.2,52.7 344.8,52.7 344.8,55.6 336.4,55.6 336.4,59.3 344.3,59.3 344.3,62.1 
			336.4,62.1 336.4,66.6 345.1,66.6 345.1,69.4 		"/>
		<path class="st2" d="M347,64l3.1-0.3c0.2,1.1,0.6,1.9,1.1,2.4c0.6,0.5,1.3,0.8,2.3,0.8c1,0,1.8-0.2,2.3-0.7c0.5-0.5,0.8-1,0.8-1.6
			c0-0.4-0.1-0.7-0.3-1c-0.2-0.3-0.6-0.5-1.1-0.7c-0.4-0.1-1.2-0.4-2.5-0.7c-1.7-0.4-2.9-1-3.6-1.7c-1-0.9-1.4-2-1.4-3.4
			c0-0.9,0.2-1.6,0.7-2.4c0.5-0.7,1.1-1.3,1.9-1.7c0.9-0.4,1.9-0.6,3.1-0.6c2,0,3.5,0.5,4.4,1.4c1,0.9,1.5,2.1,1.6,3.7l-3.2,0.2
			c-0.1-0.9-0.4-1.5-0.9-1.9c-0.5-0.4-1.1-0.6-2-0.6c-0.9,0-1.6,0.2-2.2,0.6c-0.3,0.3-0.5,0.6-0.5,1c0,0.4,0.2,0.7,0.5,1
			c0.4,0.4,1.4,0.7,2.9,1.1c1.5,0.4,2.7,0.8,3.4,1.2c0.7,0.4,1.3,1,1.7,1.7c0.4,0.7,0.6,1.6,0.6,2.7c0,0.9-0.2,1.8-0.7,2.7
			c-0.5,0.8-1.2,1.5-2.1,1.9c-0.9,0.4-2.1,0.6-3.4,0.6c-2,0-3.5-0.5-4.6-1.5C347.9,67.3,347.2,65.9,347,64z"/>
		<path class="st2" d="M367.7,64l3.1-0.3c0.2,1.1,0.6,1.9,1.1,2.4c0.6,0.5,1.3,0.8,2.3,0.8c1,0,1.8-0.2,2.3-0.7
			c0.5-0.5,0.8-1,0.8-1.6c0-0.4-0.1-0.7-0.3-1c-0.2-0.3-0.6-0.5-1.1-0.7c-0.4-0.1-1.2-0.4-2.5-0.7c-1.7-0.4-2.9-1-3.6-1.7
			c-1-0.9-1.4-2-1.4-3.4c0-0.9,0.2-1.6,0.7-2.4c0.5-0.7,1.1-1.3,2-1.7c0.9-0.4,1.9-0.6,3.1-0.6c2,0,3.4,0.5,4.4,1.4
			c1,0.9,1.5,2.1,1.6,3.7l-3.2,0.2c-0.1-0.9-0.4-1.5-0.9-1.9c-0.4-0.4-1.1-0.6-2-0.6c-0.9,0-1.6,0.2-2.2,0.6c-0.3,0.3-0.5,0.6-0.5,1
			c0,0.4,0.2,0.7,0.5,1c0.4,0.4,1.4,0.7,2.9,1.1c1.5,0.4,2.7,0.8,3.4,1.2c0.7,0.4,1.3,1,1.7,1.7c0.4,0.7,0.6,1.6,0.6,2.7
			c0,0.9-0.2,1.8-0.7,2.7c-0.5,0.8-1.2,1.5-2.1,1.9c-0.9,0.4-2.1,0.6-3.4,0.6c-2,0-3.5-0.5-4.6-1.5C368.6,67.3,367.9,65.9,367.7,64z
			"/>
		<rect x="382.8" y="66.2" class="st2" width="3" height="3.2"/>
		<path class="st2" d="M403.3,69.4h-3.4l-1.4-3.8h-6.3l-1.3,3.8h-3.4l6.1-16.7h3.3L403.3,69.4L403.3,69.4z M397.5,62.8l-2.2-6.2
			l-2.1,6.2H397.5z"/>
		<rect x="405" y="66.2" class="st2" width="3" height="3.2"/>
		<rect x="139.3" y="66.2" class="st2" width="3" height="3.2"/>
	</g>
	<polygon class="st3" points="0,0 0,12 36,12 36,58 9,58 9,40 30,40 30,24 0,24 0,70 49,70 49,0 	"/>
</g>
</svg>
